<svg id="Layer_1" data-name="Layer 1" xmlns="http://www.w3.org/2000/svg" viewBox="0 0 186.42 107.62"><defs><style>.cls-1{fill:#c88abc;}.cls-2{fill:#010101;}.cls-3{fill:#00adb6;}.cls-4{fill:#36479d;}.cls-5{fill:#e83025;}.cls-6{fill:#00a650;}.cls-7{fill:#2b3990;}.cls-8{fill:#2e3192;}</style></defs><title>logo</title><path class="cls-1" d="M379.52,491.18h0Z" transform="translate(-287.34 -423.28)"/><path class="cls-1" d="M383,440.63a51.66,51.66,0,0,0-14.93,36.73c0,.61,0,1.22.05,1.83h0a52.42,52.42,0,0,0,1,8.53l.05.17a7,7,0,0,0,2.44,3.57,5.56,5.56,0,0,0,3.33,1,10,10,0,0,0,4.52-1.3,6,6,0,0,0,.62-.35l.18-.11a19.52,19.52,0,0,1,26.09,26.9,1.49,1.49,0,0,0-.15.4,8.27,8.27,0,0,0-.85,3.53,6.37,6.37,0,0,0,.69,2.84,7.37,7.37,0,0,0,2.32,2.6,8.43,8.43,0,0,0,1.83,1l.28.08a51.83,51.83,0,0,0,61.29-49.55c0-.59,0-1.18,0-1.76A51.9,51.9,0,0,0,383,440.63Z" transform="translate(-287.34 -423.28)"/><path class="cls-2" d="M473.76,476.77h0c0,.61,0,1.22,0,1.83A53.79,53.79,0,0,1,410.17,530l-.67-.2a10.79,10.79,0,0,1-2.22-1.24,9.32,9.32,0,0,1-2.9-3.29,9,9,0,0,1,0-7.9,3.06,3.06,0,0,1,.3-.69,17.77,17.77,0,0,0,2.29-8.82,17.58,17.58,0,0,0-17.69-17.46,17.83,17.83,0,0,0-8,2l-.11.07-.75.43a11.76,11.76,0,0,1-5.41,1.52,7.42,7.42,0,0,1-4.48-1.38,8.84,8.84,0,0,1-3.14-4.53l-.11-.39a54.34,54.34,0,0,1-1.07-8.85c0-.62,0-1.26,0-1.89a53.8,53.8,0,0,1,107.6-.6ZM411,526.22a50.25,50.25,0,0,0,9.33.81,49.88,49.88,0,0,0,49.58-48.53c0-.57,0-1.14,0-1.7h0a49.94,49.94,0,1,0-99.87.55c0,.59,0,1.18,0,1.77a51.56,51.56,0,0,0,1,8.16l0,.06a5.14,5.14,0,0,0,1.71,2.56,3.67,3.67,0,0,0,2.19.66,8.13,8.13,0,0,0,3.64-1.07l.52-.3.28-.17a21.53,21.53,0,0,1,9.89-2.47,21.42,21.42,0,0,1,21.57,21.29,21.58,21.58,0,0,1-2.75,10.67l-.12.32a5.22,5.22,0,0,0-.19,4.68,5.5,5.5,0,0,0,1.73,1.93,7.18,7.18,0,0,0,1.35.77Z" transform="translate(-287.34 -423.28)"/><circle class="cls-3" cx="437.51" cy="502.55" r="10.97" transform="translate(-291.49 -419.63) rotate(-0.48)"/><path class="cls-2" d="M449.45,502.48a11.94,11.94,0,1,1-12-11.86A12,12,0,0,1,449.45,502.48Zm-21.94.13a10,10,0,1,0,9.94-10.06A10,10,0,0,0,427.51,502.61Z" transform="translate(-287.34 -423.28)"/><path class="cls-4" d="M449,460.17a11,11,0,1,1-10.9,11A11,11,0,0,1,449,460.17Z" transform="translate(-287.34 -423.28)"/><path class="cls-2" d="M461,471.07a11.94,11.94,0,1,1-12-11.87A12,12,0,0,1,461,471.07Zm-21.94.13a10,10,0,1,0,9.95-10.06A10,10,0,0,0,439.1,471.2Z" transform="translate(-287.34 -423.28)"/><path class="cls-5" d="M424.27,438.38a11,11,0,1,1-10.9,11A11,11,0,0,1,424.27,438.38Z" transform="translate(-287.34 -423.28)"/><path class="cls-2" d="M436.27,449.28a11.94,11.94,0,1,1-12-11.87A12,12,0,0,1,436.27,449.28Zm-21.94.13a10,10,0,1,0,9.94-10.06A10,10,0,0,0,414.33,449.41Z" transform="translate(-287.34 -423.28)"/><path class="cls-6" d="M393.43,445.41a11,11,0,1,1-10.91,11A11,11,0,0,1,393.43,445.41Z" transform="translate(-287.34 -423.28)"/><path class="cls-2" d="M405.43,456.31a11.94,11.94,0,1,1-12-11.87A11.94,11.94,0,0,1,405.43,456.31Zm-21.94.13a10,10,0,1,0,9.94-10.07A10,10,0,0,0,383.49,456.44Z" transform="translate(-287.34 -423.28)"/><path class="cls-7" d="M301.34,490.17h-14V463h4.38v17.73a3.19,3.19,0,0,0,.78,2.14,2.31,2.31,0,0,0,3.67,0,3.21,3.21,0,0,0,.76-2.15V463h4.41Zm-7-28.42a1.9,1.9,0,0,1-1.51-.73,2.63,2.63,0,0,1-.61-1.77,2.53,2.53,0,0,1,.65-1.72,1.9,1.9,0,0,1,3,0,2.53,2.53,0,0,1,.62,1.75,2.57,2.57,0,0,1-.64,1.75A1.9,1.9,0,0,1,294.33,461.75Z" transform="translate(-287.34 -423.28)"/><path class="cls-7" d="M312.35,483.5H300.71V472.94H308V463h4.4ZM303,487.22a2.63,2.63,0,0,1,.63-1.79,2,2,0,0,1,1.55-.71,1.88,1.88,0,0,1,1.49.73,2.71,2.71,0,0,1,.62,1.77,2.6,2.6,0,0,1-.63,1.75,1.89,1.89,0,0,1-1.48.73,2,2,0,0,1-1.52-.74A2.52,2.52,0,0,1,303,487.22Zm6.14,0a2.59,2.59,0,0,1,.65-1.75,1.89,1.89,0,0,1,3,0,2.67,2.67,0,0,1,.63,1.77,2.63,2.63,0,0,1-.62,1.76,2,2,0,0,1-1.52.72,1.93,1.93,0,0,1-1.49-.75A2.54,2.54,0,0,1,309.14,487.22Z" transform="translate(-287.34 -423.28)"/><path class="cls-7" d="M333.44,483.5H311.2V472.94c5,.08,8.12.11,9.23.11q8,0,8.41-.63a2.21,2.21,0,0,0,.41-1.17l-.42-1.15q-.52-.63-6.46-.63l-6.37.11V456.24h17.44v5H321.65a1.33,1.33,0,0,0-1,.5,1.7,1.7,0,0,0-.44,1.17,1.81,1.81,0,0,0,.44,1.2,1.31,1.31,0,0,0,1,.51h11.79Zm-5.7-29.6H315.82v-3.43h11.92Z" transform="translate(-287.34 -423.28)"/><path class="cls-7" d="M343.88,483.5H332.24V472.94h7.24V463h4.4Zm-4.34-24.25a2.58,2.58,0,0,1,.65-1.72,2,2,0,0,1,1.5-.74,1.91,1.91,0,0,1,1.51.71,2.54,2.54,0,0,1,.63,1.75,2.62,2.62,0,0,1-.63,1.76,1.95,1.95,0,0,1-3,0A2.64,2.64,0,0,1,339.54,459.25Z" transform="translate(-287.34 -423.28)"/><path class="cls-7" d="M353.73,490.17h-8.65v-2.95q4.23,0,4.23-3.44V463h4.42Z" transform="translate(-287.34 -423.28)"/><path class="cls-8" d="M344.68,527.76h-16V508.25H332v11a4.13,4.13,0,0,0,1,2.75,3,3,0,0,0,2.34,1.18A3,3,0,0,0,337.7,522a4.15,4.15,0,0,0,1-2.77,4,4,0,0,0-.67-2.27,3.76,3.76,0,0,0-1.71-1.44v-7.25h8.37V513h-2.11a2.49,2.49,0,0,0-.61-1.67,1.85,1.85,0,0,0-1.43-.7,1.83,1.83,0,0,0-1.44.69,2.51,2.51,0,0,0-.58,1.68q0,2.52,3.39,2.52c.31,0,.78,0,1.41-.08s1.09-.08,1.37-.08Z" transform="translate(-287.34 -423.28)"/><path class="cls-8" d="M349.79,523H346.5V493.6h3.29Z" transform="translate(-287.34 -423.28)"/><path class="cls-8" d="M362.14,506.32V523H349.35v-7.57h3.82a3.5,3.5,0,0,1-.45-1.79,3.88,3.88,0,0,1,.93-2.63,2.89,2.89,0,0,1,4.51,0,3.87,3.87,0,0,1,.92,2.63,3.37,3.37,0,0,1-.45,1.79h1.24a8.76,8.76,0,0,0,.28-2,4.71,4.71,0,0,0-1.29-3.32,3.94,3.94,0,0,0-2.95-1.38,3.33,3.33,0,0,0-3.12,1.78v-4.12Zm-7.77,7.3a1.85,1.85,0,0,0,.46,1.26,1.38,1.38,0,0,0,1.08.53,1.4,1.4,0,0,0,1.08-.52,1.94,1.94,0,0,0,.44-1.27,1.87,1.87,0,0,0-.45-1.26,1.34,1.34,0,0,0-1.07-.52,1.36,1.36,0,0,0-1.07.53A1.85,1.85,0,0,0,354.37,513.62Z" transform="translate(-287.34 -423.28)"/><path class="cls-8" d="M367.09,523h-3.58V508.25h8.68V523h-3.6v-7.43a2.25,2.25,0,0,0,1.26-2.21,2.47,2.47,0,0,0-.59-1.67,1.81,1.81,0,0,0-1.43-.69,1.88,1.88,0,0,0-1.42.65,2.25,2.25,0,0,0-.61,1.59,2.42,2.42,0,0,0,1.29,2.33Z" transform="translate(-287.34 -423.28)"/><path class="cls-8" d="M382.17,527.76h-8.26v-2.12c.26,0,.68,0,1.24.06s1,.06,1.28.06q3.61,0,3.61-2.78h-6.13V508.25h8.26ZM376,515.57a2.33,2.33,0,0,0,.66,1.73,2.07,2.07,0,0,0,1.54.64,1.63,1.63,0,0,0,1.33-.75,2.6,2.6,0,0,0,.55-1.62,2.44,2.44,0,0,0-.6-1.68,1.86,1.86,0,0,0-2.88,0A2.46,2.46,0,0,0,376,515.57Z" transform="translate(-287.34 -423.28)"/><path class="cls-8" d="M387.83,523h-6.65V511.6h3.35v-18h3.3Z" transform="translate(-287.34 -423.28)"/><path class="cls-8" d="M400.23,523h-13v-7.57h10.26a3,3,0,0,0-1.43-2.83A6.46,6.46,0,0,0,393,512l-1.17,0-1.05,0v-3.82h9.06v7.16h.36Zm-7.86,2.66a1.86,1.86,0,0,1,.48-1.24,1.36,1.36,0,0,1,2.15,0,1.93,1.93,0,0,1,.44,1.28,1.88,1.88,0,0,1-.47,1.23,1.4,1.4,0,0,1-1.06.55,1.41,1.41,0,0,1-1.08-.53A1.82,1.82,0,0,1,392.37,525.64Z" transform="translate(-287.34 -423.28)"/></svg>